<svg xmlns="http://www.w3.org/2000/svg" width="60" height="60"><path d="M 58.732 9.796 L 43.609 4.306 L 43.609 1.748 C 43.609 0.783 42.827 0 41.862 0 L 1.748 0 C 0.782 0 0 0.783 0 1.748 L 0 58.136 C 0 59.101 0.782 59.884 1.748 59.884 L 41.862 59.884 C 42.742 59.884 43.469 59.232 43.59 58.384 L 59.786 12.015 C 60.101 11.111 59.632 10.122 58.732 9.796 Z M 40.114 56.389 L 3.495 56.389 L 3.495 3.495 L 40.114 3.495 Z M 43.61 47.727 L 43.61 8.024 L 55.917 12.492 Z" fill="#D32F2F"></path><path d="M 37.653 22.234 L 34.128 18.833 L 35.597 17.311 C 36.166 16.739 36.245 15.842 35.784 15.18 C 35.502 14.795 35.064 14.555 34.589 14.523 C 34.113 14.491 33.647 14.671 33.316 15.014 L 19.736 29.075 L 20.5 29.817 L 21.296 30.586 L 22.065 31.329 L 28.11 25.07 L 31.629 28.466 C 31.833 28.666 32.11 28.776 32.395 28.771 C 32.681 28.766 32.953 28.647 33.151 28.44 L 33.904 27.66 C 34.103 27.455 34.212 27.179 34.207 26.893 C 34.202 26.608 34.083 26.336 33.877 26.138 L 33.482 25.754 L 35.004 24.178 L 35.399 24.563 C 35.605 24.761 35.882 24.869 36.168 24.862 C 36.453 24.862 36.726 24.744 36.921 24.536 L 37.679 23.756 C 38.091 23.328 38.079 22.648 37.653 22.234 Z M 33.813 22.288 L 31.549 24.632 C 31.452 24.735 31.316 24.793 31.175 24.792 L 31.164 24.792 C 31.027 24.793 30.894 24.739 30.796 24.643 L 29.231 23.137 C 29.02 22.93 29.015 22.591 29.22 22.378 L 31.485 20.034 C 31.582 19.931 31.717 19.873 31.858 19.874 C 32 19.871 32.137 19.924 32.238 20.023 L 33.797 21.529 C 34.01 21.735 34.017 22.073 33.813 22.288 Z M 19.811 33.657 L 19.042 32.915 L 18.252 32.151 L 17.483 31.409 L 16.586 32.338 C 13.422 30.459 9.345 31.331 7.226 34.339 C 5.108 37.348 5.662 41.481 8.498 43.825 C 11.334 46.17 15.497 45.937 18.054 43.291 C 20.335 40.945 20.692 37.333 18.914 34.586 Z M 16.495 41.785 C 15.598 42.717 14.365 43.252 13.072 43.269 L 12.981 43.269 C 10.668 43.263 8.678 41.629 8.222 39.361 C 7.766 37.093 8.969 34.818 11.1 33.917 C 13.231 33.017 15.701 33.741 17.009 35.649 C 18.318 37.557 18.103 40.122 16.495 41.785 Z M 17.039 33.401 C 17.039 33.402 17.039 33.403 17.038 33.405 C 17.039 33.404 17.04 33.402 17.039 33.401 Z M 16.991 33.443 C 17.008 33.434 17.023 33.421 17.034 33.406 C 17.035 33.406 17.036 33.405 17.036 33.405 C 17.036 33.405 17.035 33.406 17.034 33.406 C 17.023 33.421 17.008 33.434 16.991 33.443 L 16.986 33.449 Z M 8.366 34.631 C 10.323 32.223 13.798 31.716 16.361 33.465 C 16.394 33.488 16.43 33.505 16.467 33.518 L 16.468 33.518 C 16.43 33.506 16.394 33.488 16.361 33.465 C 13.798 31.716 10.323 32.223 8.366 34.631 C 7.449 35.759 7.008 37.129 7.03 38.487 C 7.006 37.085 7.48 35.719 8.366 34.631 Z M 18.966 38.491 C 18.988 37.181 18.578 35.9 17.798 34.848 L 17.798 34.848 C 18.578 35.901 18.988 37.181 18.966 38.491 Z M 20.938 31.724 L 19.405 30.245 L 19.352 30.191 L 18.583 29.449 C 18.482 29.349 18.345 29.295 18.204 29.299 C 18.061 29.304 17.925 29.364 17.824 29.465 C 17.713 29.57 17.65 29.717 17.654 29.871 C 17.655 30.012 17.713 30.146 17.814 30.245 L 18.588 30.992 L 18.625 31.024 L 20.169 32.52 L 20.964 33.283 C 21.066 33.382 21.202 33.436 21.343 33.434 C 21.484 33.432 21.619 33.374 21.717 33.273 C 21.831 33.168 21.895 33.021 21.894 32.867 C 21.894 32.725 21.836 32.59 21.733 32.493 Z" fill="#D32F2F"></path></svg>